HIERARCHY
ROOT Hips
{
	OFFSET 0.000000 0.000000 0.000000
	CHANNELS 6 Xposition Yposition Zposition Xrotation Yrotation Zrotation
	JOINT Spine
	{
		OFFSET 0.000000 0.044490 0.066735
		CHANNELS 3 Xrotation Yrotation Zrotation
		JOINT Spine1
		{
			OFFSET 0.000000 0.015451 0.087628
			CHANNELS 3 Xrotation Yrotation Zrotation
			JOINT Spine2
			{
				OFFSET 0.000000 0.007755 0.088641
				CHANNELS 3 Xrotation Yrotation Zrotation
				JOINT Spine3
				{
					OFFSET 0.000000 0.000000 0.088980
					CHANNELS 3 Xrotation Yrotation Zrotation
					JOINT Neck
					{
						OFFSET 0.000000 -0.033367 0.233572
						CHANNELS 3 Xrotation Yrotation Zrotation
						JOINT Head
						{
							OFFSET 0.000000 -0.021245 0.120488
							CHANNELS 3 Xrotation Yrotation Zrotation
							End Site
							{
								OFFSET 0.000000 0.000000 0.000000
							}
						}
					}
					JOINT RightShoulder
					{
						OFFSET -0.026917 -0.044862 0.145355
						CHANNELS 3 Xrotation Yrotation Zrotation
						JOINT RightArm
						{
							OFFSET -0.133690 0.000000 0.000000
							CHANNELS 3 Xrotation Yrotation Zrotation
							JOINT RightForeArm
							{
								OFFSET -0.257725 0.000000 0.000000
								CHANNELS 3 Xrotation Yrotation Zrotation
								JOINT RightHand
								{
									OFFSET -0.216749 0.000000 0.000000
									CHANNELS 3 Xrotation Yrotation Zrotation
									JOINT RightHandEnd
									{
										OFFSET -0.062518 0.000000 0.000000
										CHANNELS 3 Xrotation Yrotation Zrotation
										End Site
										{
											OFFSET 0.000000 0.000000 0.000000
										}
									}
									JOINT RightHandThumb1
									{
										OFFSET -0.025007 -0.041679 -0.016672
										CHANNELS 3 Xrotation Yrotation Zrotation
										End Site
										{
											OFFSET 0.000000 0.000000 0.000000
										}
									}
								}
							}
						}
					}
					JOINT LeftShoulder
					{
						OFFSET 0.026917 -0.044862 0.145355
						CHANNELS 3 Xrotation Yrotation Zrotation
						JOINT LeftArm
						{
							OFFSET 0.133690 0.000000 0.000000
							CHANNELS 3 Xrotation Yrotation Zrotation
							JOINT LeftForeArm
							{
								OFFSET 0.257725 0.000000 0.000000
								CHANNELS 3 Xrotation Yrotation Zrotation
								JOINT LeftHand
								{
									OFFSET 0.216749 0.000000 0.000000
									CHANNELS 3 Xrotation Yrotation Zrotation
									JOINT LeftHandEnd
									{
										OFFSET 0.062518 0.000000 0.000000
										CHANNELS 3 Xrotation Yrotation Zrotation
										End Site
										{
											OFFSET 0.000000 0.000000 0.000000
										}
									}
									JOINT LeftHandThumb1
									{
										OFFSET 0.025007 -0.041679 -0.016672
										CHANNELS 3 Xrotation Yrotation Zrotation
										End Site
										{
											OFFSET 0.000000 0.000000 0.000000
										}
									}
								}
							}
						}
					}
				}
			}
		}
	}
	JOINT RightUpLeg
	{
		OFFSET -0.079855 0.000000 -0.023329
		CHANNELS 3 Xrotation Yrotation Zrotation
		JOINT RightLeg
		{
			OFFSET 0.000000 0.000000 -0.366572
			CHANNELS 3 Xrotation Yrotation Zrotation
			JOINT RightFoot
			{
				OFFSET 0.000000 0.000000 -0.363650
				CHANNELS 3 Xrotation Yrotation Zrotation
				JOINT RightToeBase
				{
					OFFSET 0.000000 -0.114715 -0.041753
					CHANNELS 3 Xrotation Yrotation Zrotation
					End Site
					{
						OFFSET 0.000000 0.000000 0.000000
					}
				}
			}
		}
	}
	JOINT LeftUpLeg
	{
		OFFSET 0.079855 0.000000 -0.023329
		CHANNELS 3 Xrotation Yrotation Zrotation
		JOINT LeftLeg
		{
			OFFSET 0.000000 0.000000 -0.366572
			CHANNELS 3 Xrotation Yrotation Zrotation
			JOINT LeftFoot
			{
				OFFSET 0.000000 0.000000 -0.363650
				CHANNELS 3 Xrotation Yrotation Zrotation
				JOINT LeftToeBase
				{
					OFFSET 0.000000 -0.114715 -0.041753
					CHANNELS 3 Xrotation Yrotation Zrotation
					End Site
					{
						OFFSET 0.000000 0.000000 0.000000
					}
				}
			}
		}
	}
}
MOTION
Frames: 12
Frame Time: 0.033333
0.544116 -0.765099 0.804725 1.976400 -1.933800 -90.560400 -1.307100 -0.300300 0.100300 -1.174000 -0.778600 -0.097700 1.293600 0.732000 -0.985900 0.290300 0.534700 -0.672700 -5.287900 4.018100 -2.123700 -0.628400 -2.274200 -5.448100 -0.811200 13.589000 2.315700 -7.004100 -6.199400 -7.003000 0.000000 0.000000 0.584400 3.255200 0.560800 -7.401100 0.000000 0.000000 0.000000 0.000000 0.000000 0.000000 0.360700 -13.626300 -1.849900 1.026500 13.740700 14.540900 0.000000 0.000000 -10.979500 -0.815700 -2.449200 7.327100 0.000000 0.000000 0.000000 0.000000 0.000000 0.000000 2.299000 3.026800 -8.435900 -1.702600 0.000000 0.000000 -4.586300 -7.102000 -10.325500 0.939600 0.000000 0.000000 -0.383000 -6.564900 22.255600 3.181200 0.000000 0.000000 -3.089600 5.062600 -2.095600 -0.528700 0.000000 0.000000 
0.544170 -0.765178 0.804715 1.970000 -1.946000 -90.597800 -1.307400 -0.297800 0.104800 -1.175700 -0.784700 -0.097700 1.288500 0.745100 -0.983100 0.286300 0.549500 -0.684600 -5.256200 4.093300 -2.232200 -0.568400 -2.353700 -5.627500 -0.812300 13.569900 2.347400 -7.018800 -6.185500 -6.984000 0.000000 0.000000 0.569700 3.272200 0.587400 -7.404700 0.000000 0.000000 0.000000 0.000000 0.000000 0.000000 0.348500 -13.662800 -1.839600 0.986800 13.773000 14.558500 0.000000 0.000000 -10.966700 -0.803900 -2.488700 7.325600 0.000000 0.000000 0.000000 0.000000 0.000000 0.000000 2.257100 3.041500 -8.533500 -1.663900 0.000000 0.000000 -4.581000 -7.112400 -10.190300 0.943400 0.000000 0.000000 -0.396700 -6.552800 22.271400 3.192900 0.000000 0.000000 -3.106000 5.027400 -2.078600 -0.506500 0.000000 0.000000 
0.544281 -0.765325 0.804713 1.961600 -1.974300 -90.653000 -1.318800 -0.287600 0.111500 -1.185900 -0.794700 -0.098200 1.296800 0.749100 -0.979000 0.283800 0.564000 -0.692000 -5.216600 4.185100 -2.363800 -0.491800 -2.435500 -5.843600 -0.822000 13.559100 2.387300 -7.010800 -6.170400 -6.965600 0.000000 0.000000 0.547400 3.308700 0.625300 -7.375200 0.000000 0.000000 0.000000 0.000000 0.000000 0.000000 0.328100 -13.689600 -1.835900 1.048300 13.850400 14.551400 0.000000 0.000000 -10.975000 -0.791200 -2.541900 7.309400 0.000000 0.000000 0.000000 0.000000 0.000000 0.000000 2.175900 3.062600 -8.703900 -1.594900 0.000000 0.000000 -4.575400 -7.134200 -9.966700 0.938500 0.000000 0.000000 -0.434300 -6.536400 22.281800 3.218500 0.000000 0.000000 -3.124000 4.986900 -2.033000 -0.510500 0.000000 0.000000 
0.544411 -0.765510 0.804725 1.951700 -2.000200 -90.697300 -1.333800 -0.277200 0.118400 -1.201400 -0.806200 -0.099100 1.321500 0.747900 -0.970300 0.286700 0.572100 -0.691500 -5.176400 4.233500 -2.450300 -0.443300 -2.482600 -5.970200 -0.828800 13.573600 2.410800 -6.975900 -6.175400 -6.963600 0.000000 0.000000 0.521200 3.334700 0.630000 -7.320700 0.000000 0.000000 0.000000 0.000000 0.000000 0.000000 0.305800 -13.685500 -1.845800 1.264000 13.963200 14.476800 0.000000 0.000000 -11.013100 -0.771500 -2.571000 7.289600 0.000000 0.000000 0.000000 0.000000 0.000000 0.000000 2.097100 3.088700 -8.865600 -1.525500 0.000000 0.000000 -4.571900 -7.167900 -9.762900 0.923900 0.000000 0.000000 -0.472000 -6.514600 22.278800 3.240000 0.000000 0.000000 -3.133700 4.957700 -1.980600 -0.540900 0.000000 0.000000 
0.544546 -0.765716 0.804736 1.941700 -2.019500 -90.707000 -1.345400 -0.277200 0.121800 -1.213100 -0.817800 -0.100100 1.337900 0.755600 -0.957800 0.292100 0.578200 -0.691800 -5.118800 4.229500 -2.487000 -0.422600 -2.518600 -5.992500 -0.826200 13.602000 2.409900 -6.955400 -6.199400 -6.975200 0.000000 0.000000 0.492400 3.347900 0.592000 -7.295100 0.000000 0.000000 0.000000 0.000000 0.000000 0.000000 0.290600 -13.667400 -1.868800 1.483800 14.085800 14.343300 0.000000 0.000000 -11.051800 -0.745700 -2.581400 7.282100 0.000000 0.000000 0.000000 0.000000 0.000000 0.000000 2.039500 3.117400 -8.968800 -1.474600 0.000000 0.000000 -4.569800 -7.205900 -9.651300 0.909000 0.000000 0.000000 -0.506500 -6.488900 22.265600 3.251300 0.000000 0.000000 -3.138400 4.927200 -1.955000 -0.555800 0.000000 0.000000 
0.544680 -0.765937 0.804723 1.932100 -2.034000 -90.688000 -1.346200 -0.284500 0.122300 -1.212100 -0.823900 -0.100300 1.318500 0.763100 -0.951300 0.291700 0.586000 -0.697900 -5.027000 4.222300 -2.506000 -0.400700 -2.567100 -5.987200 -0.826500 13.630800 2.405300 -6.968500 -6.223200 -6.990300 0.000000 0.000000 0.477000 3.369700 0.567100 -7.315900 0.000000 0.000000 0.000000 0.000000 0.000000 0.000000 0.278900 -13.647100 -1.913800 1.582300 14.198500 14.213900 0.000000 0.000000 -11.071600 -0.733400 -2.583800 7.284500 0.000000 0.000000 0.000000 0.000000 0.000000 0.000000 1.999500 3.147400 -9.029700 -1.440000 0.000000 0.000000 -4.568200 -7.236300 -9.613200 0.905900 0.000000 0.000000 -0.539500 -6.460400 22.253900 3.255800 0.000000 0.000000 -3.141000 4.888300 -1.962900 -0.537900 0.000000 0.000000 
0.544820 -0.766186 0.804713 1.922700 -2.051900 -90.666100 -1.343500 -0.288100 0.120700 -1.203000 -0.823700 -0.101100 1.271200 0.753500 -0.961100 0.285100 0.589900 -0.705200 -4.924600 4.247600 -2.508800 -0.367000 -2.585900 -5.991600 -0.837100 13.661200 2.419400 -6.988100 -6.235700 -6.996900 0.000000 0.000000 0.489500 3.406700 0.594600 -7.334000 0.000000 0.000000 0.000000 0.000000 0.000000 0.000000 0.260700 -13.606900 -1.977200 1.648500 14.294600 14.125200 0.000000 0.000000 -11.086200 -0.742300 -2.563200 7.282100 0.000000 0.000000 0.000000 0.000000 0.000000 0.000000 1.958000 3.176900 -9.084900 -1.410400 0.000000 0.000000 -4.565300 -7.252800 -9.589100 0.914300 0.000000 0.000000 -0.576600 -6.432100 22.252000 3.259800 0.000000 0.000000 -3.137900 4.864600 -1.984200 -0.521000 0.000000 0.000000 
0.544962 -0.766460 0.804736 1.911800 -2.069700 -90.663200 -1.342300 -0.286300 0.120100 -1.193700 -0.820800 -0.102600 1.224200 0.729800 -0.984700 0.278500 0.588300 -0.711700 -4.851800 4.292800 -2.474100 -0.332800 -2.532900 -5.982300 -0.842700 13.693700 2.450700 -6.989600 -6.239500 -6.983000 0.000000 0.000000 0.514700 3.409900 0.636100 -7.314600 0.000000 0.000000 0.000000 0.000000 0.000000 0.000000 0.243700 -13.541400 -2.031000 1.792800 14.370700 14.059700 0.000000 0.000000 -11.109000 -0.749900 -2.512000 7.274100 0.000000 0.000000 0.000000 0.000000 0.000000 0.000000 1.912800 3.207000 -9.138400 -1.380400 0.000000 0.000000 -4.558600 -7.260200 -9.549300 0.924100 0.000000 0.000000 -0.607500 -6.403600 22.255100 3.261300 0.000000 0.000000 -3.128800 4.877100 -1.993900 -0.531300 0.000000 0.000000 
0.545092 -0.766722 0.804776 1.900100 -2.073500 -90.679200 -1.330000 -0.286200 0.120700 -1.181200 -0.827500 -0.104600 1.181900 0.722200 -1.002200 0.272700 0.585200 -0.718900 -4.819800 4.331600 -2.413800 -0.304500 -2.453200 -5.951300 -0.828600 13.716800 2.477700 -6.985400 -6.238400 -6.953700 0.000000 0.000000 0.522200 3.370800 0.642800 -7.298400 0.000000 0.000000 0.000000 0.000000 0.000000 0.000000 0.248200 -13.493100 -2.051900 1.919100 14.430600 13.995900 0.000000 0.000000 -11.127200 -0.730700 -2.471400 7.271600 0.000000 0.000000 0.000000 0.000000 0.000000 0.000000 1.882200 3.237800 -9.178400 -1.354600 0.000000 0.000000 -4.544600 -7.267700 -9.495700 0.926000 0.000000 0.000000 -0.616300 -6.375400 22.255700 3.260100 0.000000 0.000000 -3.123000 4.904000 -1.986000 -0.545700 0.000000 0.000000 
0.545257 -0.766943 0.804789 1.887300 -2.082300 -90.706700 -1.313800 -0.291800 0.122600 -1.159700 -0.831800 -0.104100 1.129700 0.727500 -0.996600 0.263100 0.584200 -0.722900 -4.816500 4.364500 -2.367700 -0.280700 -2.424100 -5.923000 -0.805400 13.725900 2.480900 -6.991600 -6.233700 -6.935200 0.000000 0.000000 0.510800 3.345400 0.630900 -7.327400 0.000000 0.000000 0.000000 0.000000 0.000000 0.000000 0.268600 -13.491500 -2.059700 1.901300 14.477500 13.955500 0.000000 0.000000 -11.133000 -0.689900 -2.485900 7.277000 0.000000 0.000000 0.000000 0.000000 0.000000 0.000000 1.842000 3.270700 -9.192400 -1.328400 0.000000 0.000000 -4.526700 -7.275900 -9.445400 0.920100 0.000000 0.000000 -0.636600 -6.347400 22.245200 3.270600 0.000000 0.000000 -3.126300 4.905200 -1.955000 -0.538200 0.000000 0.000000 
0.545442 -0.767126 0.804771 1.875100 -2.095600 -90.745200 -1.291700 -0.295500 0.124200 -1.130000 -0.828200 -0.101200 1.064900 0.728100 -0.976100 0.248700 0.580900 -0.716400 -4.828500 4.397500 -2.349800 -0.266500 -2.446200 -5.903000 -0.786400 13.747100 2.467100 -7.009300 -6.245400 -6.945400 0.000000 0.000000 0.500000 3.357300 0.639600 -7.365900 0.000000 0.000000 0.000000 0.000000 0.000000 0.000000 0.295500 -13.522100 -2.068300 1.812000 14.515200 13.952700 0.000000 0.000000 -11.135800 -0.665800 -2.536500 7.279200 0.000000 0.000000 0.000000 0.000000 0.000000 0.000000 1.799000 3.301400 -9.179600 -1.312100 0.000000 0.000000 -4.506100 -7.285200 -9.412100 0.915500 0.000000 0.000000 -0.666200 -6.321000 22.234100 3.289200 0.000000 0.000000 -3.133200 4.878100 -1.906600 -0.519700 0.000000 0.000000 
0.545640 -0.767288 0.804779 1.868600 -2.120200 -90.796600 -1.276700 -0.295700 0.124500 -1.107000 -0.820200 -0.097900 1.006900 0.715400 -0.964100 0.235100 0.573400 -0.704500 -4.851300 4.423200 -2.334400 -0.257800 -2.449600 -5.874500 -0.773500 13.787600 2.459800 -7.038200 -6.269600 -6.968100 0.000000 0.000000 0.489900 3.355000 0.661700 -7.359400 0.000000 0.000000 0.000000 0.000000 0.000000 0.000000 0.329200 -13.549200 -2.058300 1.769800 14.533500 13.979100 0.000000 0.000000 -11.138000 -0.677800 -2.566400 7.273500 0.000000 0.000000 0.000000 0.000000 0.000000 0.000000 1.745900 3.322000 -9.153600 -1.305300 0.000000 0.000000 -4.484000 -7.298300 -9.392100 0.926700 0.000000 0.000000 -0.708000 -6.304500 22.233400 3.311900 0.000000 0.000000 -3.143800 4.848300 -1.854900 -0.515600 0.000000 0.000000 
